<svg xmlns="http://www.w3.org/2000/svg" width="193.596" height="192.876" viewBox="0 0 193.596 192.876">
  <path id="Icon_weather-stars" data-name="Icon weather-stars" d="M6.444,96.9a18.105,18.105,0,0,0,12.679-5.763,18.058,18.058,0,0,0,5.225-12.909A18.645,18.645,0,0,0,42.175,96.9a18.645,18.645,0,0,0-17.827,18.672,17.746,17.746,0,0,0-5.225-12.909A18.105,18.105,0,0,0,6.444,96.9Zm17.9-55.326a35.315,35.315,0,0,0,24.666-11.3,35.174,35.174,0,0,0,10.143-25.2A35.174,35.174,0,0,0,69.3,30.28a35.663,35.663,0,0,0,24.743,11.3,35.615,35.615,0,0,0-17.6,5.456A36.926,36.926,0,0,0,63.768,60.325a36.133,36.133,0,0,0-4.61,17.9A35.352,35.352,0,0,0,49.014,52.948,35.084,35.084,0,0,0,24.348,41.576Zm25.511,82.758a26.456,26.456,0,0,0,18.6-8.453A26.462,26.462,0,0,0,76.062,96.9a27.454,27.454,0,0,0,26.126,27.432,27.454,27.454,0,0,0-26.126,27.432,26.462,26.462,0,0,0-7.607-18.98A26.918,26.918,0,0,0,49.859,124.334Zm52.329-36.423a26.282,26.282,0,0,0,18.519-8.453,26.444,26.444,0,0,0,7.53-19.057,27.447,27.447,0,0,0,26.2,27.432,27.447,27.447,0,0,0-26.2,27.432,27.178,27.178,0,0,0-26.049-27.356Z" transform="matrix(0.921, 0.391, -0.391, 0.921, 53.393, -7.18)" fill="#f6ff00" stroke="#e8e8e8" stroke-width="1.2"/>
</svg>
